<mxfile host="app.diagrams.net" modified="2020-10-27T09:05:11.462Z" agent="5.0 (Windows NT 10.0; Win64; x64) AppleWebKit/537.36 (KHTML, like Gecko) Chrome/86.0.4240.111 Safari/537.36" etag="eLwGnivTpcoof0ADZZIE" version="13.7.6" type="github">
  <diagram id="C5RBs43oDa-KdzZeNtuy" name="Page-1">
    <mxGraphModel dx="1422" dy="762" grid="1" gridSize="10" guides="1" tooltips="1" connect="1" arrows="1" fold="1" page="1" pageScale="1" pageWidth="827" pageHeight="1169" math="0" shadow="0">
      <root>
        <mxCell id="WIyWlLk6GJQsqaUBKTNV-0" />
        <mxCell id="WIyWlLk6GJQsqaUBKTNV-1" parent="WIyWlLk6GJQsqaUBKTNV-0" />
        <mxCell id="bYR_f570frGf715F7eb6-9" value="&lt;p style=&quot;margin: 0px ; margin-top: 4px ; text-align: center&quot;&gt;&lt;i&gt;&amp;lt;&amp;lt;Interface&amp;gt;&amp;gt;&lt;/i&gt;&lt;br&gt;&lt;b&gt;Executor&lt;/b&gt;&lt;/p&gt;&lt;p style=&quot;margin: 0px ; margin-left: 4px&quot;&gt;&lt;br&gt;&lt;/p&gt;&lt;hr size=&quot;1&quot;&gt;&lt;p style=&quot;margin: 0px ; margin-left: 4px&quot;&gt;+ execute(Runnable): void&lt;br&gt;&lt;/p&gt;" style="verticalAlign=top;align=left;overflow=fill;fontSize=12;fontFamily=Helvetica;html=1;" vertex="1" parent="WIyWlLk6GJQsqaUBKTNV-1">
          <mxGeometry x="224" y="580" width="190" height="140" as="geometry" />
        </mxCell>
        <mxCell id="bYR_f570frGf715F7eb6-13" value="" style="endArrow=open;endFill=1;endSize=12;html=1;entryX=1;entryY=0.5;entryDx=0;entryDy=0;exitX=0;exitY=0.5;exitDx=0;exitDy=0;" edge="1" parent="WIyWlLk6GJQsqaUBKTNV-1" source="bYR_f570frGf715F7eb6-20" target="bYR_f570frGf715F7eb6-9">
          <mxGeometry width="160" relative="1" as="geometry">
            <mxPoint x="640" y="650" as="sourcePoint" />
            <mxPoint x="610" y="770" as="targetPoint" />
          </mxGeometry>
        </mxCell>
        <mxCell id="bYR_f570frGf715F7eb6-14" value="«interface»&lt;br&gt;&lt;b&gt;CompletionService&lt;/b&gt;" style="html=1;" vertex="1" parent="WIyWlLk6GJQsqaUBKTNV-1">
          <mxGeometry x="710" y="420" width="190" height="70" as="geometry" />
        </mxCell>
        <mxCell id="bYR_f570frGf715F7eb6-16" value="" style="endArrow=block;dashed=1;endFill=0;endSize=12;html=1;exitX=0.5;exitY=0;exitDx=0;exitDy=0;entryX=0.5;entryY=1;entryDx=0;entryDy=0;" edge="1" parent="WIyWlLk6GJQsqaUBKTNV-1" target="bYR_f570frGf715F7eb6-14">
          <mxGeometry width="160" relative="1" as="geometry">
            <mxPoint x="805" y="595" as="sourcePoint" />
            <mxPoint x="770" y="520" as="targetPoint" />
          </mxGeometry>
        </mxCell>
        <mxCell id="bYR_f570frGf715F7eb6-17" value="Extends" style="endArrow=block;endSize=16;endFill=0;html=1;entryX=0.5;entryY=1;entryDx=0;entryDy=0;exitX=0.5;exitY=0;exitDx=0;exitDy=0;" edge="1" parent="WIyWlLk6GJQsqaUBKTNV-1" source="bYR_f570frGf715F7eb6-18" target="bYR_f570frGf715F7eb6-9">
          <mxGeometry width="160" relative="1" as="geometry">
            <mxPoint x="319" y="850" as="sourcePoint" />
            <mxPoint x="420" y="850" as="targetPoint" />
          </mxGeometry>
        </mxCell>
        <mxCell id="bYR_f570frGf715F7eb6-18" value="&lt;p style=&quot;margin: 0px ; margin-top: 4px ; text-align: center&quot;&gt;&lt;i&gt;&amp;lt;&amp;lt;Interface&amp;gt;&amp;gt;&lt;/i&gt;&lt;br&gt;&lt;b&gt;ExecutorService&lt;/b&gt;&lt;/p&gt;&lt;p style=&quot;margin: 0px ; margin-left: 4px&quot;&gt;&lt;br&gt;&lt;/p&gt;&lt;hr size=&quot;1&quot;&gt;&lt;p style=&quot;margin: 0px ; margin-left: 4px&quot;&gt;+ submint(Runnable): Future&amp;lt;?&amp;gt;&lt;br&gt;+ submint(Callable&amp;lt;T&amp;gt;): Future&amp;lt;T&amp;gt;&lt;/p&gt;" style="verticalAlign=top;align=left;overflow=fill;fontSize=12;fontFamily=Helvetica;html=1;" vertex="1" parent="WIyWlLk6GJQsqaUBKTNV-1">
          <mxGeometry x="211" y="830" width="216" height="140" as="geometry" />
        </mxCell>
        <mxCell id="bYR_f570frGf715F7eb6-19" value="ExecutorCompletionService" style="swimlane;fontStyle=0;childLayout=stackLayout;horizontal=1;startSize=26;fillColor=none;horizontalStack=0;resizeParent=1;resizeParentMax=0;resizeLast=0;collapsible=1;marginBottom=0;" vertex="1" parent="WIyWlLk6GJQsqaUBKTNV-1">
          <mxGeometry x="680" y="610" width="265" height="52" as="geometry" />
        </mxCell>
        <mxCell id="bYR_f570frGf715F7eb6-20" value="+ executor: Executor" style="text;strokeColor=none;fillColor=none;align=left;verticalAlign=top;spacingLeft=4;spacingRight=4;overflow=hidden;rotatable=0;points=[[0,0.5],[1,0.5]];portConstraint=eastwest;" vertex="1" parent="bYR_f570frGf715F7eb6-19">
          <mxGeometry y="26" width="265" height="26" as="geometry" />
        </mxCell>
        <mxCell id="bYR_f570frGf715F7eb6-23" value="&lt;p style=&quot;margin: 0px ; margin-top: 4px ; text-align: center&quot;&gt;&lt;i&gt;&amp;lt;&amp;lt;Interface&amp;gt;&amp;gt;&lt;/i&gt;&lt;br&gt;&lt;b&gt;Future&lt;/b&gt;&lt;/p&gt;&lt;p style=&quot;margin: 0px ; margin-left: 4px&quot;&gt;&lt;br&gt;&lt;/p&gt;&lt;hr size=&quot;1&quot;&gt;&lt;p style=&quot;margin: 0px ; margin-left: 4px&quot;&gt;+ cancel(boolean): boolean&lt;br&gt;+ get(): V&lt;/p&gt;&lt;p style=&quot;margin: 0px ; margin-left: 4px&quot;&gt;+ get(long, TimeUnit): V&lt;br&gt;&lt;/p&gt;" style="verticalAlign=top;align=left;overflow=fill;fontSize=12;fontFamily=Helvetica;html=1;" vertex="1" parent="WIyWlLk6GJQsqaUBKTNV-1">
          <mxGeometry x="610" y="820" width="190" height="140" as="geometry" />
        </mxCell>
        <mxCell id="bYR_f570frGf715F7eb6-24" value="&lt;p style=&quot;margin: 0px ; margin-top: 4px ; text-align: center&quot;&gt;&lt;i&gt;&amp;lt;&amp;lt;Interface&amp;gt;&amp;gt;&lt;/i&gt;&lt;br&gt;&lt;b&gt;Delayed&lt;/b&gt;&lt;/p&gt;&lt;p style=&quot;margin: 0px ; margin-left: 4px&quot;&gt;&lt;br&gt;&lt;/p&gt;&lt;hr size=&quot;1&quot;&gt;&lt;p style=&quot;margin: 0px ; margin-left: 4px&quot;&gt;+ getDelay(TimeUnit): long&lt;br&gt;&lt;/p&gt;" style="verticalAlign=top;align=left;overflow=fill;fontSize=12;fontFamily=Helvetica;html=1;" vertex="1" parent="WIyWlLk6GJQsqaUBKTNV-1">
          <mxGeometry x="920" y="830" width="190" height="140" as="geometry" />
        </mxCell>
        <mxCell id="bYR_f570frGf715F7eb6-25" value="&lt;p style=&quot;margin: 0px ; margin-top: 4px ; text-align: center&quot;&gt;&lt;i&gt;&amp;lt;&amp;lt;Interface&amp;gt;&amp;gt;&lt;/i&gt;&lt;br&gt;&lt;b&gt;ScheduledFuture&lt;/b&gt;&lt;/p&gt;&lt;hr size=&quot;1&quot;&gt;&lt;p style=&quot;margin: 0px ; margin-left: 4px&quot;&gt;&lt;br&gt;&lt;/p&gt;" style="verticalAlign=top;align=left;overflow=fill;fontSize=12;fontFamily=Helvetica;html=1;" vertex="1" parent="WIyWlLk6GJQsqaUBKTNV-1">
          <mxGeometry x="870" y="1110" width="190" height="140" as="geometry" />
        </mxCell>
        <mxCell id="bYR_f570frGf715F7eb6-26" value="&lt;p style=&quot;margin: 0px ; margin-top: 4px ; text-align: center&quot;&gt;&lt;i&gt;&amp;lt;&amp;lt;Interface&amp;gt;&amp;gt;&lt;/i&gt;&lt;br&gt;&lt;b&gt;ScheduledExecutorService&lt;/b&gt;&lt;/p&gt;&lt;p style=&quot;margin: 0px ; margin-left: 4px&quot;&gt;&lt;br&gt;&lt;/p&gt;&lt;hr size=&quot;1&quot;&gt;&lt;p style=&quot;margin: 0px ; margin-left: 4px&quot;&gt;+ schedule(Rubbable, long, TimeUnit): ScheduledFuture&amp;lt;?&amp;gt;&lt;br&gt;+ schedule(Callable&amp;lt;V&amp;gt;, long, TimeUnit): ScheduledFuture&amp;lt;V&amp;gt;&lt;/p&gt;&lt;p style=&quot;margin: 0px ; margin-left: 4px&quot;&gt;+ scheduleAtFixedRate(Runnable, long, long, TimeUnit): ScheduledFuture&amp;lt;?&amp;gt;&lt;br&gt;&lt;/p&gt;&lt;p style=&quot;margin: 0px ; margin-left: 4px&quot;&gt;+ scheduleWithFixeDelay(Runnable, long, long, TimeUnit): ScheduledFuture&amp;lt;?&amp;gt;&lt;br&gt;&lt;/p&gt;" style="verticalAlign=top;align=left;overflow=fill;fontSize=12;fontFamily=Helvetica;html=1;" vertex="1" parent="WIyWlLk6GJQsqaUBKTNV-1">
          <mxGeometry x="340" y="1110" width="440" height="140" as="geometry" />
        </mxCell>
        <mxCell id="bYR_f570frGf715F7eb6-27" value="&lt;p style=&quot;margin: 0px ; margin-top: 4px ; text-align: center&quot;&gt;&lt;b&gt;Executors&lt;/b&gt;&lt;/p&gt;&lt;p style=&quot;margin: 0px ; margin-left: 4px&quot;&gt;&lt;br&gt;&lt;/p&gt;&lt;hr size=&quot;1&quot;&gt;&lt;p style=&quot;margin: 0px ; margin-left: 4px&quot;&gt;+ newCachedThreadPool(): ExecutorService&lt;/p&gt;&lt;p style=&quot;margin: 0px ; margin-left: 4px&quot;&gt;+ newFixedThreadPool(int): ExecutorService&lt;br&gt;&lt;/p&gt;&lt;p style=&quot;margin: 0px ; margin-left: 4px&quot;&gt;+ newScheduledThreadPool(int): ScheduledExecutorService&lt;br&gt;&lt;/p&gt;&lt;p style=&quot;margin: 0px ; margin-left: 4px&quot;&gt;+ newSingleThreadExecutor():&amp;nbsp;ExecutorService&lt;br&gt;&lt;/p&gt;&lt;p style=&quot;margin: 0px ; margin-left: 4px&quot;&gt;+ newSingleThreadScheduledExecutor(): ScheduledExecutorService&lt;br&gt;&lt;/p&gt;" style="verticalAlign=top;align=left;overflow=fill;fontSize=12;fontFamily=Helvetica;html=1;" vertex="1" parent="WIyWlLk6GJQsqaUBKTNV-1">
          <mxGeometry x="790" y="1370" width="400" height="140" as="geometry" />
        </mxCell>
        <mxCell id="bYR_f570frGf715F7eb6-28" value="&lt;p style=&quot;margin: 0px ; margin-top: 4px ; text-align: center&quot;&gt;&lt;b&gt;AbstactExecutorService&lt;/b&gt;&lt;/p&gt;&lt;hr size=&quot;1&quot;&gt;&lt;p style=&quot;margin: 0px ; margin-left: 4px&quot;&gt;&lt;/p&gt;" style="verticalAlign=top;align=left;overflow=fill;fontSize=12;fontFamily=Helvetica;html=1;" vertex="1" parent="WIyWlLk6GJQsqaUBKTNV-1">
          <mxGeometry x="24" y="1110" width="200" height="90" as="geometry" />
        </mxCell>
        <mxCell id="bYR_f570frGf715F7eb6-29" value="&lt;p style=&quot;margin: 0px ; margin-top: 4px ; text-align: center&quot;&gt;&lt;b&gt;ThreadPoolExecutor&lt;/b&gt;&lt;/p&gt;&lt;hr size=&quot;1&quot;&gt;&lt;p style=&quot;margin: 0px ; margin-left: 4px&quot;&gt;&lt;/p&gt;" style="verticalAlign=top;align=left;overflow=fill;fontSize=12;fontFamily=Helvetica;html=1;" vertex="1" parent="WIyWlLk6GJQsqaUBKTNV-1">
          <mxGeometry x="24" y="1340" width="200" height="90" as="geometry" />
        </mxCell>
        <mxCell id="bYR_f570frGf715F7eb6-30" value="&lt;p style=&quot;margin: 0px ; margin-top: 4px ; text-align: center&quot;&gt;&lt;b&gt;ScheduleThreadPoolExecutor&lt;/b&gt;&lt;/p&gt;&lt;hr size=&quot;1&quot;&gt;&lt;p style=&quot;margin: 0px ; margin-left: 4px&quot;&gt;&lt;/p&gt;" style="verticalAlign=top;align=left;overflow=fill;fontSize=12;fontFamily=Helvetica;html=1;" vertex="1" parent="WIyWlLk6GJQsqaUBKTNV-1">
          <mxGeometry x="270" y="1490" width="220" height="100" as="geometry" />
        </mxCell>
        <mxCell id="bYR_f570frGf715F7eb6-31" value="Extends" style="endArrow=block;endSize=16;endFill=0;html=1;entryX=0.5;entryY=1;entryDx=0;entryDy=0;exitX=0.75;exitY=0;exitDx=0;exitDy=0;" edge="1" parent="WIyWlLk6GJQsqaUBKTNV-1" source="bYR_f570frGf715F7eb6-25" target="bYR_f570frGf715F7eb6-24">
          <mxGeometry width="160" relative="1" as="geometry">
            <mxPoint x="960" y="1080" as="sourcePoint" />
            <mxPoint x="1050" y="1000" as="targetPoint" />
          </mxGeometry>
        </mxCell>
        <mxCell id="bYR_f570frGf715F7eb6-32" value="Extends" style="endArrow=block;endSize=16;endFill=0;html=1;entryX=0.75;entryY=1;entryDx=0;entryDy=0;exitX=0.5;exitY=0;exitDx=0;exitDy=0;" edge="1" parent="WIyWlLk6GJQsqaUBKTNV-1" source="bYR_f570frGf715F7eb6-25" target="bYR_f570frGf715F7eb6-23">
          <mxGeometry width="160" relative="1" as="geometry">
            <mxPoint x="920" y="1090" as="sourcePoint" />
            <mxPoint x="775" y="1000" as="targetPoint" />
          </mxGeometry>
        </mxCell>
        <mxCell id="bYR_f570frGf715F7eb6-33" value="Extends" style="endArrow=block;endSize=16;endFill=0;html=1;entryX=0.75;entryY=1;entryDx=0;entryDy=0;exitX=0.25;exitY=0;exitDx=0;exitDy=0;" edge="1" parent="WIyWlLk6GJQsqaUBKTNV-1" source="bYR_f570frGf715F7eb6-26" target="bYR_f570frGf715F7eb6-18">
          <mxGeometry width="160" relative="1" as="geometry">
            <mxPoint x="390" y="1090" as="sourcePoint" />
            <mxPoint x="470" y="1030" as="targetPoint" />
          </mxGeometry>
        </mxCell>
        <mxCell id="bYR_f570frGf715F7eb6-34" value="" style="endArrow=block;dashed=1;endFill=0;endSize=12;html=1;entryX=0.25;entryY=1;entryDx=0;entryDy=0;exitX=0.5;exitY=0;exitDx=0;exitDy=0;" edge="1" parent="WIyWlLk6GJQsqaUBKTNV-1" source="bYR_f570frGf715F7eb6-28" target="bYR_f570frGf715F7eb6-18">
          <mxGeometry width="160" relative="1" as="geometry">
            <mxPoint x="130" y="1109" as="sourcePoint" />
            <mxPoint x="210" y="1070" as="targetPoint" />
          </mxGeometry>
        </mxCell>
        <mxCell id="bYR_f570frGf715F7eb6-36" value="Extends" style="endArrow=block;endSize=16;endFill=0;html=1;entryX=0.5;entryY=1;entryDx=0;entryDy=0;exitX=0.5;exitY=0;exitDx=0;exitDy=0;" edge="1" parent="WIyWlLk6GJQsqaUBKTNV-1" source="bYR_f570frGf715F7eb6-29" target="bYR_f570frGf715F7eb6-28">
          <mxGeometry width="160" relative="1" as="geometry">
            <mxPoint x="120" y="1260" as="sourcePoint" />
            <mxPoint x="280" y="1260" as="targetPoint" />
          </mxGeometry>
        </mxCell>
        <mxCell id="bYR_f570frGf715F7eb6-37" value="Extends" style="endArrow=block;endSize=16;endFill=0;html=1;entryX=0.75;entryY=1;entryDx=0;entryDy=0;exitX=0.25;exitY=0;exitDx=0;exitDy=0;" edge="1" parent="WIyWlLk6GJQsqaUBKTNV-1" source="bYR_f570frGf715F7eb6-30" target="bYR_f570frGf715F7eb6-29">
          <mxGeometry width="160" relative="1" as="geometry">
            <mxPoint x="100" y="1500" as="sourcePoint" />
            <mxPoint x="260" y="1500" as="targetPoint" />
          </mxGeometry>
        </mxCell>
        <mxCell id="bYR_f570frGf715F7eb6-38" value="" style="endArrow=block;dashed=1;endFill=0;endSize=12;html=1;entryX=0.5;entryY=1;entryDx=0;entryDy=0;exitX=0.75;exitY=0;exitDx=0;exitDy=0;" edge="1" parent="WIyWlLk6GJQsqaUBKTNV-1" source="bYR_f570frGf715F7eb6-30" target="bYR_f570frGf715F7eb6-26">
          <mxGeometry width="160" relative="1" as="geometry">
            <mxPoint x="420" y="1430" as="sourcePoint" />
            <mxPoint x="580" y="1430" as="targetPoint" />
          </mxGeometry>
        </mxCell>
        <mxCell id="bYR_f570frGf715F7eb6-39" value="" style="endArrow=open;endFill=1;endSize=12;html=1;entryX=1;entryY=0.5;entryDx=0;entryDy=0;exitX=0;exitY=0.25;exitDx=0;exitDy=0;" edge="1" parent="WIyWlLk6GJQsqaUBKTNV-1" source="bYR_f570frGf715F7eb6-27" target="bYR_f570frGf715F7eb6-29">
          <mxGeometry width="160" relative="1" as="geometry">
            <mxPoint x="590" y="1440" as="sourcePoint" />
            <mxPoint x="750" y="1440" as="targetPoint" />
          </mxGeometry>
        </mxCell>
        <mxCell id="bYR_f570frGf715F7eb6-40" value="" style="endArrow=open;endFill=1;endSize=12;html=1;entryX=1;entryY=0.5;entryDx=0;entryDy=0;exitX=-0.007;exitY=0.857;exitDx=0;exitDy=0;exitPerimeter=0;" edge="1" parent="WIyWlLk6GJQsqaUBKTNV-1" source="bYR_f570frGf715F7eb6-27" target="bYR_f570frGf715F7eb6-30">
          <mxGeometry width="160" relative="1" as="geometry">
            <mxPoint x="570" y="1500" as="sourcePoint" />
            <mxPoint x="730" y="1500" as="targetPoint" />
          </mxGeometry>
        </mxCell>
      </root>
    </mxGraphModel>
  </diagram>
</mxfile>
